<svg width="720" height="560" viewBox="0 0 720 560" xmlns="http://www.w3.org/2000/svg">
  <defs>
    <linearGradient id="sky" x1="0" y1="0" x2="0" y2="1">
      <stop offset="0%" stop-color="#cfe8f7"/>
      <stop offset="100%" stop-color="#F6F8F5"/>
    </linearGradient>
    <linearGradient id="roof" x1="0" y1="0" x2="1" y2="1">
      <stop offset="0%" stop-color="#1f3d2c"/>
      <stop offset="100%" stop-color="#0B2E1F"/>
    </linearGradient>
  </defs>
  <rect width="720" height="560" fill="url(#sky)"/>
  <circle cx="604.8" cy="100.8" r="39.2" fill="#F2B229" opacity="0.9"/>
  <polygon points="36,347.2 360,190.4 684,347.2 684,532 36,532" fill="url(#roof)"/>
  <polygon points="36,347.2 360,190.4 684,347.2" fill="#0d2c1d"/>
  <rect x="129.6" y="257.6" width="460.8" height="100.8" fill="#173a28" rx="6" /><line x1="129.6" y1="257.6" x2="590.4" y2="257.6" stroke="#0B2E1F" stroke-opacity="0.35" stroke-width="1.5" /><line x1="129.6" y1="308" x2="590.4" y2="308" stroke="#0B2E1F" stroke-opacity="0.35" stroke-width="1.5" /><line x1="129.6" y1="358.40000000000003" x2="590.4" y2="358.40000000000003" stroke="#0B2E1F" stroke-opacity="0.35" stroke-width="1.5" /><line x1="129.6" y1="257.6" x2="129.6" y2="358.40000000000003" stroke="#0B2E1F" stroke-opacity="0.35" stroke-width="1.5" /><line x1="187.2" y1="257.6" x2="187.2" y2="358.40000000000003" stroke="#0B2E1F" stroke-opacity="0.35" stroke-width="1.5" /><line x1="244.8" y1="257.6" x2="244.8" y2="358.40000000000003" stroke="#0B2E1F" stroke-opacity="0.35" stroke-width="1.5" /><line x1="302.4" y1="257.6" x2="302.4" y2="358.40000000000003" stroke="#0B2E1F" stroke-opacity="0.35" stroke-width="1.5" /><line x1="360" y1="257.6" x2="360" y2="358.40000000000003" stroke="#0B2E1F" stroke-opacity="0.35" stroke-width="1.5" /><line x1="417.6" y1="257.6" x2="417.6" y2="358.40000000000003" stroke="#0B2E1F" stroke-opacity="0.35" stroke-width="1.5" /><line x1="475.20000000000005" y1="257.6" x2="475.20000000000005" y2="358.40000000000003" stroke="#0B2E1F" stroke-opacity="0.35" stroke-width="1.5" /><line x1="532.8" y1="257.6" x2="532.8" y2="358.40000000000003" stroke="#0B2E1F" stroke-opacity="0.35" stroke-width="1.5" /><line x1="590.4" y1="257.6" x2="590.4" y2="358.40000000000003" stroke="#0B2E1F" stroke-opacity="0.35" stroke-width="1.5" />
  <rect x="0" y="532" width="720" height="28" fill="#0B2E1F"/>
  <g>
    <rect x="190" y="490" width="340" height="48" rx="10" fill="white" opacity="0.92"/>
    <text x="360" y="518" text-anchor="middle" font-family="Arial, sans-serif" font-size="16" font-weight="700" fill="#0B2E1F">Rooftop Solar Installation</text>
  </g>
  <text x="360" y="67.2" text-anchor="middle" font-family="Arial, sans-serif" font-size="13" font-weight="600" fill="#0B2E1F" opacity="0.55">PLACEHOLDER — replace with real photo</text>
</svg>