<svg width="1200" height="630" viewBox="0 0 1200 630" xmlns="http://www.w3.org/2000/svg">
  <defs>
    <linearGradient id="sky" x1="0" y1="0" x2="0" y2="1">
      <stop offset="0%" stop-color="#cfe8f7"/>
      <stop offset="100%" stop-color="#F6F8F5"/>
    </linearGradient>
    <linearGradient id="roof" x1="0" y1="0" x2="1" y2="1">
      <stop offset="0%" stop-color="#1f3d2c"/>
      <stop offset="100%" stop-color="#0B2E1F"/>
    </linearGradient>
  </defs>
  <rect width="1200" height="630" fill="url(#sky)"/>
  <circle cx="1008" cy="113.39999999999999" r="44.1" fill="#F2B229" opacity="0.9"/>
  <polygon points="60,390.6 600,214.20000000000002 1140,390.6 1140,598.5 60,598.5" fill="url(#roof)"/>
  <polygon points="60,390.6 600,214.20000000000002 1140,390.6" fill="#0d2c1d"/>
  <rect x="216" y="289.8" width="768" height="113.39999999999999" fill="#173a28" rx="6" /><line x1="216" y1="289.8" x2="984" y2="289.8" stroke="#0B2E1F" stroke-opacity="0.35" stroke-width="1.5" /><line x1="216" y1="346.5" x2="984" y2="346.5" stroke="#0B2E1F" stroke-opacity="0.35" stroke-width="1.5" /><line x1="216" y1="403.2" x2="984" y2="403.2" stroke="#0B2E1F" stroke-opacity="0.35" stroke-width="1.5" /><line x1="216" y1="289.8" x2="216" y2="403.2" stroke="#0B2E1F" stroke-opacity="0.35" stroke-width="1.5" /><line x1="312" y1="289.8" x2="312" y2="403.2" stroke="#0B2E1F" stroke-opacity="0.35" stroke-width="1.5" /><line x1="408" y1="289.8" x2="408" y2="403.2" stroke="#0B2E1F" stroke-opacity="0.35" stroke-width="1.5" /><line x1="504" y1="289.8" x2="504" y2="403.2" stroke="#0B2E1F" stroke-opacity="0.35" stroke-width="1.5" /><line x1="600" y1="289.8" x2="600" y2="403.2" stroke="#0B2E1F" stroke-opacity="0.35" stroke-width="1.5" /><line x1="696" y1="289.8" x2="696" y2="403.2" stroke="#0B2E1F" stroke-opacity="0.35" stroke-width="1.5" /><line x1="792" y1="289.8" x2="792" y2="403.2" stroke="#0B2E1F" stroke-opacity="0.35" stroke-width="1.5" /><line x1="888" y1="289.8" x2="888" y2="403.2" stroke="#0B2E1F" stroke-opacity="0.35" stroke-width="1.5" /><line x1="984" y1="289.8" x2="984" y2="403.2" stroke="#0B2E1F" stroke-opacity="0.35" stroke-width="1.5" />
  <rect x="0" y="598.5" width="1200" height="31.5" fill="#0B2E1F"/>
  <g>
    <rect x="430" y="560" width="340" height="48" rx="10" fill="white" opacity="0.92"/>
    <text x="600" y="588" text-anchor="middle" font-family="Arial, sans-serif" font-size="16" font-weight="700" fill="#0B2E1F">Prakhar Green Energy Solutions</text>
  </g>
  <text x="600" y="75.6" text-anchor="middle" font-family="Arial, sans-serif" font-size="13" font-weight="600" fill="#0B2E1F" opacity="0.55">PLACEHOLDER OG IMAGE</text>
</svg>