<svg width="640" height="420" viewBox="0 0 640 420" xmlns="http://www.w3.org/2000/svg">
  <defs>
    <linearGradient id="sky" x1="0" y1="0" x2="0" y2="1">
      <stop offset="0%" stop-color="#cfe8f7"/>
      <stop offset="100%" stop-color="#F6F8F5"/>
    </linearGradient>
    <linearGradient id="roof" x1="0" y1="0" x2="1" y2="1">
      <stop offset="0%" stop-color="#1f3d2c"/>
      <stop offset="100%" stop-color="#0B2E1F"/>
    </linearGradient>
  </defs>
  <rect width="640" height="420" fill="url(#sky)"/>
  <circle cx="537.6" cy="75.6" r="29.400000000000002" fill="#F2B229" opacity="0.9"/>
  <polygon points="32,260.4 320,142.8 608,260.4 608,399 32,399" fill="url(#roof)"/>
  <polygon points="32,260.4 320,142.8 608,260.4" fill="#0d2c1d"/>
  <rect x="115.19999999999999" y="193.20000000000002" width="409.6" height="75.6" fill="#173a28" rx="6" /><line x1="115.19999999999999" y1="193.20000000000002" x2="524.8" y2="193.20000000000002" stroke="#0B2E1F" stroke-opacity="0.35" stroke-width="1.5" /><line x1="115.19999999999999" y1="231" x2="524.8" y2="231" stroke="#0B2E1F" stroke-opacity="0.35" stroke-width="1.5" /><line x1="115.19999999999999" y1="268.8" x2="524.8" y2="268.8" stroke="#0B2E1F" stroke-opacity="0.35" stroke-width="1.5" /><line x1="115.19999999999999" y1="193.20000000000002" x2="115.19999999999999" y2="268.8" stroke="#0B2E1F" stroke-opacity="0.35" stroke-width="1.5" /><line x1="166.39999999999998" y1="193.20000000000002" x2="166.39999999999998" y2="268.8" stroke="#0B2E1F" stroke-opacity="0.35" stroke-width="1.5" /><line x1="217.6" y1="193.20000000000002" x2="217.6" y2="268.8" stroke="#0B2E1F" stroke-opacity="0.35" stroke-width="1.5" /><line x1="268.8" y1="193.20000000000002" x2="268.8" y2="268.8" stroke="#0B2E1F" stroke-opacity="0.35" stroke-width="1.5" /><line x1="320" y1="193.20000000000002" x2="320" y2="268.8" stroke="#0B2E1F" stroke-opacity="0.35" stroke-width="1.5" /><line x1="371.2" y1="193.20000000000002" x2="371.2" y2="268.8" stroke="#0B2E1F" stroke-opacity="0.35" stroke-width="1.5" /><line x1="422.40000000000003" y1="193.20000000000002" x2="422.40000000000003" y2="268.8" stroke="#0B2E1F" stroke-opacity="0.35" stroke-width="1.5" /><line x1="473.6" y1="193.20000000000002" x2="473.6" y2="268.8" stroke="#0B2E1F" stroke-opacity="0.35" stroke-width="1.5" /><line x1="524.8" y1="193.20000000000002" x2="524.8" y2="268.8" stroke="#0B2E1F" stroke-opacity="0.35" stroke-width="1.5" />
  <rect x="0" y="399" width="640" height="21" fill="#0B2E1F"/>
  <g>
    <rect x="150" y="350" width="340" height="48" rx="10" fill="white" opacity="0.92"/>
    <text x="320" y="378" text-anchor="middle" font-family="Arial, sans-serif" font-size="16" font-weight="700" fill="#0B2E1F">Commercial Solar</text>
  </g>
  <text x="320" y="50.4" text-anchor="middle" font-family="Arial, sans-serif" font-size="13" font-weight="600" fill="#0B2E1F" opacity="0.55">PLACEHOLDER IMAGE</text>
</svg>